<?xml version="1.0" encoding="utf-8"?>
<!-- Generator: Adobe Illustrator 21.0.2, SVG Export Plug-In . SVG Version: 6.00 Build 0)  -->
<svg version="1.1" id="Layer_1" xmlns="http://www.w3.org/2000/svg" xmlns:xlink="http://www.w3.org/1999/xlink" x="0px" y="0px"
	 viewBox="0 0 601 501" style="enable-background:new 0 0 601 501;" xml:space="preserve">
<g id="Layer_1_1_">
</g>
<rect x="0.5" y="200.5" style="fill:none;stroke:#000000;stroke-miterlimit:10;" width="100" height="100"/>
<rect x="100.5" y="200.5" style="fill:none;stroke:#000000;stroke-miterlimit:10;" width="100" height="100"/>
<rect x="200.5" y="200.5" style="fill:none;stroke:#000000;stroke-miterlimit:10;" width="100" height="100"/>
<rect x="300.5" y="200.5" style="fill:none;stroke:#000000;stroke-miterlimit:10;" width="100" height="100"/>
<rect x="400.5" y="200.5" style="fill:none;stroke:#000000;stroke-miterlimit:10;" width="100" height="100"/>
<rect x="500.5" y="200.5" style="fill:none;stroke:#000000;stroke-miterlimit:10;" width="100" height="100"/>
<rect x="400.5" y="0.2" style="fill:none;stroke:#000000;stroke-miterlimit:10;" width="100" height="100"/>
<rect x="300.5" y="100.5" style="fill:none;stroke:#000000;stroke-miterlimit:10;" width="100" height="100"/>
<rect x="300.5" y="300.5" style="fill:none;stroke:#000000;stroke-miterlimit:10;" width="100" height="100"/>
<rect x="300.5" y="401" style="fill:none;stroke:#000000;stroke-miterlimit:10;" width="100" height="100"/>
<rect x="300.5" y="0.2" style="fill:none;stroke:#000000;stroke-miterlimit:10;" width="100" height="100"/>
<rect x="500.5" y="0.2" style="fill:none;stroke:#000000;stroke-miterlimit:10;" width="100" height="100"/>
<rect x="400.5" y="401" style="fill:none;stroke:#000000;stroke-miterlimit:10;" width="100" height="100"/>
<rect x="500.5" y="401" style="fill:none;stroke:#000000;stroke-miterlimit:10;" width="100" height="100"/>
<rect x="200.5" y="401" style="fill:none;stroke:#000000;stroke-miterlimit:10;" width="100" height="100"/>
<rect x="100.5" y="401" style="fill:none;stroke:#000000;stroke-miterlimit:10;" width="100" height="100"/>
<rect x="0.5" y="401" style="fill:none;stroke:#000000;stroke-miterlimit:10;" width="100" height="100"/>
<rect x="0.5" y="0.2" style="fill:none;stroke:#000000;stroke-miterlimit:10;" width="100" height="100"/>
<rect x="100.5" y="0.2" style="fill:none;stroke:#000000;stroke-miterlimit:10;" width="100" height="100"/>
<rect x="200.5" y="0.2" style="fill:none;stroke:#000000;stroke-miterlimit:10;" width="100" height="100"/>
<rect x="7.4" y="207" style="fill:none;" width="11.6" height="15"/>
<text transform="matrix(1 0 0 1 7.3931 219.9224)" style="font-family:'ArialMT'; font-size:18px; letter-spacing:5;">2</text>
<rect x="7.4" y="408" style="fill:none;" width="11.6" height="15"/>
<text transform="matrix(1 0 0 1 7.3931 420.9224)" style="font-family:'ArialMT'; font-size:18px; letter-spacing:5;">3</text>
<rect x="305.4" y="6" style="fill:none;" width="11.6" height="15"/>
<text transform="matrix(1 0 0 1 305.3931 18.9224)" style="font-family:'ArialMT'; font-size:18px; letter-spacing:5;">1</text>
<rect x="7.4" y="6" style="fill:none;" width="11.6" height="15"/>
<text transform="matrix(1 0 0 1 7.3931 18.9224)" style="font-family:'ArialMT'; font-size:18px; letter-spacing:5;">1</text>
<rect x="400" y="100" width="201" height="100"/>
<rect y="301" width="301" height="100"/>
<rect x="1" y="100" width="300" height="100"/>
<rect x="401" y="301" width="199" height="100"/>
<rect x="10" y="216.3" style="fill:none;" width="582" height="69.7"/>
</svg>
